<svg width="22" height="22" viewBox="0 0 22 22" fill="none" xmlns="http://www.w3.org/2000/svg">
<path d="M2.75 5.5H4.58334H19.25" stroke="black" stroke-width="1.2" stroke-linecap="round" stroke-linejoin="round"/>
<path d="M7.3335 5.50002V3.66668C7.3335 3.18045 7.52665 2.71414 7.87046 2.37032C8.21428 2.0265 8.6806 1.83334 9.16682 1.83334H12.8335C13.3198 1.83334 13.7861 2.0265 14.1298 2.37032C14.4737 2.71414 14.6668 3.18045 14.6668 3.66668V5.50002M17.4168 5.50002V18.3334C17.4168 18.8196 17.2237 19.2859 16.8798 19.6297C16.5361 19.9735 16.0698 20.1666 15.5835 20.1666H6.41682C5.9306 20.1666 5.46428 19.9735 5.12046 19.6297C4.77665 19.2859 4.5835 18.8196 4.5835 18.3334V5.50002H17.4168Z" stroke="black" stroke-width="1.2" stroke-linecap="round" stroke-linejoin="round"/>
<path d="M9.1665 10.0833V15.5834" stroke="black" stroke-width="1.2" stroke-linecap="round" stroke-linejoin="round"/>
<path d="M12.8335 10.0833V15.5834" stroke="black" stroke-width="1.2" stroke-linecap="round" stroke-linejoin="round"/>
</svg>
